# xmcd CD database file
#
# Track frame offsets:
#	150
#	16537
#	41405
#	68162
#	87335
#	110910
#	135890
#	163045
#	183625
#	216037
#	232932
#	253307
#
# Disc length: 3570 seconds
#
# Revision: 0
# Processed by: cddbd v1.4PL0 Copyright (c) Steve Scherf et al.
# Submitted via: CDex 1.50
#
DISCID=9c0df00c
DTITLE=Harry Allen - I Love Mancini
DYEAR=2002
DGENRE=Jazz
TTITLE0=Breakfast At Tiffany's
TTITLE1=Charade
TTITLE2=Dear Heart
TTITLE3=The Days Of Wine And Roses
TTITLE4=The Shadow Of Paris
TTITLE5=Send A Little Love My Way
TTITLE6=Moon River
TTITLE7=Too Little Time
TTITLE8=Whistling Away The Dark
TTITLE9=Mr,Lucky
TTITLE10=Dreamsville
TTITLE11=Two For The Road
EXTD=YEAR: 2002
EXTT0=
EXTT1=
EXTT2=
EXTT3=
EXTT4=
EXTT5=
EXTT6=
EXTT7=
EXTT8=
EXTT9=
EXTT10=
EXTT11=
PLAYORDER=
